<svg id="svg2" xmlns="http://www.w3.org/2000/svg" viewBox="0 0 100.7 100.7">
  <defs>
    <style>
      .cls-1 {
        fill: #000;
      }
    </style>
  </defs>
  <title>o</title>
  <path class="cls-1" d="M86,210.9l-3.1-.6a39,39,0,0,1-6.1-2.3l-1.3-.7c-1.3-.6-4.5-3.3-7-5.7-8-8.1-12.2-17.9-12.2-28.8s3.9-21.5,11.7-31.7a68.7,68.7,0,0,1,5.5-6.3,69.8,69.8,0,0,1,30.4-17.9l1.8-.5,2.1-.4,1.6-.3a70.4,70.4,0,0,1,9.5-.8l4.8.2,2.4.3-1-1.6c-1.6-2.5-1.7-3.3-.5-3.3s4.4,1.6,6.4,3.2a52.7,52.7,0,0,1,4.5,3.9l.9.7a29.6,29.6,0,0,1,4.4,2.1,23.8,23.8,0,0,1,6.1,4.6c2.6,2.7,2.8,3.9,1.1,5.6l-.9.9.5.8,1.2,1.9a77.2,77.2,0,0,1,4.5,9.1,45.3,45.3,0,0,1,3.7,18.5,26.3,26.3,0,0,1-1.2,9.2c-1.9,6.8-5.6,12.2-11.9,17.2l-2.6,2.2a126.6,126.6,0,0,1-13.5,8.9c-3.4,1.9-10.5,5.3-14.4,6.9a78.8,78.8,0,0,1-9,3,62.2,62.2,0,0,1-7.5,1.5A44.8,44.8,0,0,1,86,210.9Zm11.9-21a84.2,84.2,0,0,0,14.1-4l1.7-.7,1.7-.7,2.1-.9c1.4-.5,7.2-3.4,8.5-4.1l5.3-3.1,2.3-1.5,1.9-1.4a15.7,15.7,0,0,0,5.6-6.8c2.7-6,2.3-15.1-1.1-24.9-.9-2.5-.4-2.2-4.4-2.9l-4.2-.8a34.5,34.5,0,0,0-9.9-.7,28.9,28.9,0,0,0-5.3.4l-2.5.5a24.6,24.6,0,0,0-4.4,1.3,48.8,48.8,0,0,0-8.1,3.6,72.7,72.7,0,0,0-6.1,4l-1.5,1.2a42.7,42.7,0,0,0-5.4,5.2c-4.5,5-7.8,11.1-8.8,16.5a24.1,24.1,0,0,0,.3,8.5,22,22,0,0,0,5.6,9c1.8,1.8,2.6,2.2,5.5,2.6A36,36,0,0,0,97.9,189.9Z" transform="translate(-56.3 -110.5)"/>
</svg>