<svg xmlns="http://www.w3.org/2000/svg" xmlns:xlink="http://www.w3.org/1999/xlink" id="4" viewBox="0 0 500 500" shape-rendering="geometricPrecision" text-rendering="geometricPrecision">
    <style>
        #root {
            animation: anim1 400ms linear 1 normal forwards
        }
        @keyframes anim1 {
            0% {
                transform: translate(250px,250.000015px) rotate(0deg);
                animation-timing-function: cubic-bezier(0,0,0.500000,1)
            }
            13.333333% {
                transform: translate(250px,250.000015px) rotate(-40deg)
            } 
            100% {
                transform: translate(250px,250.000015px) rotate(-40deg)
            } 
        }
        #element2 {
            animation: anim2 3000ms linear 1 normal forwards
        }
        @keyframes anim2 {
            0% {
                transform: translate(365.313066px,205.989250px) scale(0.139944,0.459500);
                animation-timing-function: cubic-bezier(0,0,0.500000,1)
                }
            13.333333% {
                transform: translate(365.313066px,205.989250px) scale(1,1)
            }
            100% {
                transform: translate(365.313066px,205.989250px) scale(1,1)
            } 
        }
        
    </style>
    <g id="root" transform="translate(250,250.000015) rotate(0)">
        <g id="element1" transform="translate(-250,-250.000015)">
            <path 
                id="path1" 
                d="M67.060000,113.180000C69.218068,113.335288,71.385178,113.315223,73.540000,113.120000C82.870000,111.600000,88.540000,116.270000,93.080000,123.740000C100.520000,135.980000,108.370000,147.910000,117.830000,158.790000C121.170000,162.630000,123.460000,162.790000,127.670000,160.380000C156.730000,144.060000,186.670000,129.480000,218.610000,119.710000C231.040000,115.910000,243.610000,112.890000,256.800000,113.180000C258.790805,113.236336,260.772333,113.473985,262.720000,113.890000C271.310000,115.710000,272.320000,117.320000,271.460000,126.190000C270.879401,130.826419,270.980472,135.522852,271.760000,140.130000C273.140000,147.130000,270.630000,152.200000,264.510000,155.560000C254.120000,161.270000,242.900000,165.070000,231.890000,169.290000C209.050000,178.050000,186.310000,187.030000,163.890000,196.790000C158.570000,199.110000,158.570000,199.220000,162.750000,203.220000C177.690000,217.480000,192.950000,231.420000,206.600000,246.960000C212.870000,254.090000,218.820000,261.530000,222.240000,270.560000C224.790000,277.290000,223.140000,279.230000,216.140000,278.170000C212.300000,277.590000,208.830000,275.910000,205.380000,274.290000C174.842638,260.157927,145.575139,243.429818,117.900000,224.290000C113.330000,221.100000,109.830000,220.770000,104.830000,223.230000C72.560000,239.100000,40.390000,255.120000,10.330000,275.040000C7.700000,276.790000,4.450000,280.040000,1.420000,277.430000C-1.440000,275,0.760000,271.070000,1.860000,268.080000C5.240000,258.900000,10.860000,251.080000,17.200000,243.690000C33.460000,224.690000,52.980000,209.370000,73.110000,194.810000C77.110000,191.940000,77.390000,190.280000,74.110000,186.570000C60.880000,171.710000,50.320000,155.330000,46.870000,135.240000C46.545487,133.609776,46.378054,131.952189,46.370000,130.290000C46.800000,114.790000,47.910000,111.900000,63.090000,113.130000C64.410000,113.230000,65.750000,113.130000,67.090000,113.130000Z" 
                transform="matrix(1 0 0 1 113.93009175499998 59.27924956999996)" 
                fill="rgb(29,29,27)" 
                stroke="none" 
                stroke-width="1"
            />
            <g id="element2" transform="translate(365.313066,205.989250) scale(0.139944,0.459500)">
                <path 
                    id="path2"
                    d="M236.570000,136.130000C241.920000,133.300000,247.270000,129.380000,250.140000,124.710000C251.590000,122.350000,252.140000,120.710000,249.730000,118.890000C249.267175,118.527867,248.782966,118.193929,248.280000,117.890000L246.370000,117.580000C246.370000,117.580000,159.050000,103.600000,92.540000,103C92.540000,103,76.880000,102.840000,57.540000,110.850000C53.950000,112.340000,48.540000,113.780000,49.040000,117.510000C49.119192,118.175015,49.394156,118.801515,49.830000,119.310000C52.170000,122.020000,58.280000,121.730000,59.200000,121.710000C67.700000,121.500000,146.200000,134,201.590000,146.710000C213.480000,144,226.070000,141.690000,236.570000,136.130000Z"
                    transform="translate(-251.382975,-146.710000)"
                    fill="rgb(29,29,27)"
                    stroke="none"
                    stroke-width="1"
                />
            </g>
        </g>
    </g>
</svg>